<?xml version="1.0" encoding="UTF-8"?>
<svg version="1.1" xmlns="http://www.w3.org/2000/svg" width="747" height="721">
<path d="M0 0 C1.31189974 0.3597917 2.62393536 0.71908829 3.93609619 1.07792664 C17.62485207 4.84872127 31.20061875 9.00059592 44.76678467 13.18719864 C50.72569745 15.02344018 56.68939875 16.844136 62.65235901 18.66718102 C64.24424092 19.1539018 65.83606793 19.64080219 67.42784119 20.12787819 C87.65532875 26.31660534 107.91833364 32.38662227 128.18209839 38.45529175 C133.04928499 39.91304765 137.91623989 41.37157669 142.78320312 42.83007812 C143.73285446 43.11466133 144.6825058 43.39924454 145.66093445 43.69245148 C147.55667294 44.26055309 149.45240965 44.82866065 151.34814453 45.39677429 C153.21393905 45.95589826 155.07974302 46.51499068 156.94555664 47.0740509 C172.75488941 51.81109253 188.56006079 56.56166334 204.359375 61.33203125 C205.39399872 61.644216 206.42862244 61.95640076 207.49459839 62.27804565 C218.42169044 65.57575385 229.34251604 68.89287515 240.25390625 72.2421875 C244.22629071 73.46052383 248.19894445 74.6779769 252.171875 75.89453125 C253.1366275 76.19001862 254.10138 76.48550598 255.09536743 76.78994751 C266.19637568 80.18430396 277.31375614 83.45212853 288.52178955 86.47357178 C307.28221804 91.53135028 325.8287687 97.27224679 344.38591385 103.02267456 C346.77106815 103.76153692 349.15660217 104.49916218 351.54220581 105.23657227 C405.06122215 121.79117327 405.06122215 121.79117327 412.734375 135.33203125 C417.74675159 145.37127106 418.00796374 159.12950872 415.23828125 169.91015625 C414.0595586 172.36808284 412.78965694 174.37749245 411.109375 176.51953125 C410.36494141 177.56560547 410.36494141 177.56560547 409.60546875 178.6328125 C402.09408103 188.24376883 390.3112846 193.09485516 379.484375 198.01953125 C378.17484197 198.62242119 376.86560444 199.22595334 375.55664062 199.83007812 C371.41305604 201.73869734 367.26201641 203.63071409 363.109375 205.51953125 C362.08511414 205.98576904 362.08511414 205.98576904 361.04016113 206.46142578 C354.84821287 209.27965257 348.65411259 212.09312393 342.45751953 214.90112305 C321.22659158 224.52748232 300.13290016 234.44865937 279.109375 244.51953125 C290.13469793 256.89408272 301.96504763 268.4893531 313.70199418 280.1806128 C316.64898736 283.11750425 319.59263833 286.05774147 322.5365448 288.99772644 C329.99532966 296.44549526 337.45837956 303.88898342 344.921875 311.33203125 C353.00081867 319.38887846 361.07898044 327.44650135 369.15227336 335.50901145 C372.64209308 338.99388039 376.13432756 342.47630492 379.62850058 345.95680869 C381.80465299 348.12545818 383.97869231 350.29621681 386.15218735 352.4675293 C387.15298859 353.46647239 388.15464681 354.46455783 389.15726662 355.46167564 C405.60797679 371.82500334 419.26612566 385.54668969 419.43164062 409.78710938 C419.42841797 410.83318359 419.42519531 411.87925781 419.421875 412.95703125 C419.43798828 413.99923828 419.45410156 415.04144531 419.47070312 416.11523438 C419.48138954 433.35242923 413.16385253 445.88333444 401.38671875 458.3046875 C388.641031 470.70057936 373.23965622 476.05469133 355.5637207 475.94335938 C340.84449067 475.45299448 327.5765762 470.35063883 316.93136883 460.20183182 C314.52123441 457.91100295 312.08401499 455.65489734 309.62963504 453.41171575 C302.69637254 447.06685016 295.98475059 440.53287353 289.35229492 433.87597656 C288.24715849 432.77055698 287.14179968 431.66535968 286.03623962 430.56036377 C283.0803168 427.60472391 280.12745318 424.6460458 277.17519546 421.68674564 C274.07274602 418.57797808 270.96740011 415.47210635 267.86238098 412.36590576 C262.00299674 406.50343285 256.14616273 400.63841921 250.29027683 394.77245212 C243.61496 388.08589693 236.93675002 381.4022344 230.25831449 374.71879435 C216.53881562 360.988887 202.82289237 347.25541283 189.109375 333.51953125 C187.84819554 336.03379961 186.58791407 338.54851163 185.328125 341.06347656 C184.97588867 341.76546173 184.62365234 342.4674469 184.26074219 343.19070435 C180.76823796 350.16615669 177.41477676 357.20375219 174.109375 364.26953125 C173.63931534 365.27200897 173.63931534 365.27200897 173.15975952 366.29473877 C167.94207157 377.43390871 162.89738757 388.64538388 157.921875 399.89453125 C151.45956008 414.50296264 144.98277479 429.09813987 138.109375 443.51953125 C137.72845703 444.32229492 137.34753906 445.12505859 136.95507812 445.95214844 C131.15242196 458.02440145 124.82129061 465.59630826 112.109375 470.51953125 C100.77668451 473.7719626 91.01086391 472.73751243 80.546875 467.33203125 C65.45152084 458.35497108 61.49660088 445.48328442 56.65234375 429.46484375 C56.14126271 427.79722174 55.62947288 426.12981682 55.11701965 424.46261597 C54.04522776 420.96936457 52.97915757 417.47444002 51.91772461 413.97802734 C50.58421936 409.58554036 49.24105739 405.19609142 47.8941021 400.80771255 C41.09964292 378.66704352 34.51036509 356.48051155 28.35058594 334.15356445 C24.5520797 320.40692867 20.45536175 306.78549936 16.12011719 293.19869995 C14.22856589 287.26506576 12.35532142 281.32564613 10.48046875 275.38671875 C9.91475662 273.59568977 9.91475662 273.59568977 9.33761597 271.76847839 C1.39762609 246.60973543 -6.19403167 221.3506656 -13.6171875 196.03515625 C-13.87343336 195.16136511 -14.12967922 194.28757397 -14.39369011 193.38730431 C-16.81066556 185.14474399 -19.22664151 176.90189109 -21.64028931 168.65835571 C-27.23996222 149.53837619 -32.86755165 130.42941632 -38.73828125 111.390625 C-38.96822029 110.64486143 -39.19815933 109.89909786 -39.43506622 109.1307354 C-41.58522167 102.16284112 -43.74650612 95.19849722 -45.92567062 88.23962021 C-49.60396918 76.48919325 -53.22105737 64.73432951 -56.39453125 52.8359375 C-56.64075729 51.92973663 -56.88698334 51.02353577 -57.14067078 50.08987427 C-60.20972035 38.25402722 -61.28577352 26.13893298 -54.86328125 15.20703125 C-49.74070351 8.22815306 -43.8262302 2.12662452 -35.890625 -1.48046875 C-35.23964844 -1.78726563 -34.58867187 -2.0940625 -33.91796875 -2.41015625 C-22.99961011 -6.88846669 -10.84892188 -3.04163207 0 0 Z " fill="#FFFFFF" transform="translate(288.890625,202.48046875)"/>
<path d="M0 0 C5.65201412 4.57544001 5.65201412 4.57544001 6.625 9.125 C6.82146118 10.01297272 7.01792236 10.90094543 7.22033691 11.81582642 C7.84348411 17.29224847 7.51835696 21.36743273 4.11401367 25.78533936 C0.47813867 29.96502212 -3.5260913 33.76536149 -7.53125 37.5859375 C-8.99458537 39.02752389 -10.45511505 40.4719633 -11.91296387 41.9190979 C-15.74834603 45.71067553 -19.62152627 49.46122748 -23.50378418 53.20471191 C-27.43079483 57.00597736 -31.31857523 60.8469174 -35.2109375 64.68359375 C-58.48998803 87.57523275 -58.48998803 87.57523275 -67.375 95.125 C-68.91820027 96.53999594 -70.46019839 97.95630639 -72 99.375 C-79.52351738 105.99826744 -79.52351738 105.99826744 -84.30859375 106.2109375 C-90.09807157 105.79505819 -93.82459702 103.32362326 -98.1875 99.5625 C-100.73930966 96.47346726 -100.56778075 93.07415324 -100.625 89.25 C-100.66367187 87.70699219 -100.66367187 87.70699219 -100.703125 86.1328125 C-100.16315141 81.18305463 -97.66081432 78.14178311 -94.125 74.8125 C-91.7283315 72.50664488 -89.495408 70.15090858 -87.34936523 67.61157227 C-82.5059036 62.03805149 -77.25901758 56.86472245 -72.03515625 51.65234375 C-70.94316809 50.55968011 -69.85132825 49.46686822 -68.7596283 48.37391663 C-66.48272878 46.09555162 -64.20405347 43.81898217 -61.92407227 41.54370117 C-59.02157559 38.64690105 -56.12359294 35.7456332 -53.22693729 32.84299374 C-50.9766457 30.58906535 -48.72394908 28.33755274 -46.47054863 26.08673286 C-45.40184872 25.01869362 -44.33387326 23.94992892 -43.26667976 22.88038445 C-38.0171551 17.62183155 -32.76124477 12.42214668 -27.07566833 7.62989807 C-25.18278907 5.95491518 -23.47275599 4.16079396 -21.75 2.3125 C-15.43902203 -4.01269188 -7.64055271 -4.2447515 0 0 Z " fill="#FFFFFF" transform="translate(436.375,72.875)"/>
<path d="M0 0 C4.47707786 2.86014344 8.25258894 6.18020176 11.8927002 10.03308105 C13.64262533 11.81299495 15.45082342 13.42327965 17.35351562 15.03710938 C22.19424366 19.24113303 26.69007514 23.75439151 31.19921875 28.30859375 C32.07896362 29.19212524 32.9587085 30.07565674 33.8651123 30.98596191 C37.1270382 34.26206695 40.38439439 37.54269355 43.64141846 40.82366943 C46.84534135 44.05064913 50.05315991 47.27372455 53.26171875 50.49609375 C54.09215698 51.33483032 54.92259521 52.17356689 55.77819824 53.03771973 C61.7003135 58.98445916 67.81824489 64.57010585 74.35546875 69.83203125 C83.80521211 77.85245859 83.80521211 77.85245859 84.6328125 84.34765625 C84.87399206 90.36303369 84.57868538 96.48282043 81.73046875 101.90234375 C76.40556326 105.98099476 72.44464087 107.46185809 65.73046875 106.90234375 C60.74267048 104.39818026 56.75778929 101.43195774 52.72265625 97.5715332 C52.1695578 97.05145093 51.61645935 96.53136866 51.04660034 95.99552631 C44.19729576 89.51748275 37.52308318 82.85920645 30.85546875 76.1953125 C29.47362039 74.81668808 28.09170164 73.43813421 26.7097168 72.05964661 C23.84068869 69.19654889 20.97367556 66.33145115 18.10791016 63.46508789 C14.44713611 59.80421149 10.77948146 56.15031106 7.11010742 52.49805737 C4.26531182 49.66439665 1.42508935 46.82618598 -1.41387939 43.98668861 C-2.76458161 42.63716032 -4.11689145 41.28923895 -5.47088623 39.94301414 C-7.3604004 38.06334886 -9.24341344 36.17739151 -11.125 34.28979492 C-11.95104485 33.47217934 -11.95104485 33.47217934 -12.79377747 32.63804626 C-18.17796538 27.21027503 -23.00759478 21.96235903 -23.51953125 14.02734375 C-23.45619455 10.18491733 -22.73050782 7.95734914 -20.26953125 4.90234375 C-14.57070502 -0.34657514 -7.4721138 -3.61387948 0 0 Z " fill="#FFFFFF" transform="translate(124.26953125,72.09765625)"/>
<path d="M0 0 C4.24851258 2.39461618 7.22200364 4.52205462 9.4375 8.9375 C10.43889815 13.83023725 10.54140361 18.4814253 8.46484375 23.1015625 C6.94248515 25.25860705 5.29679989 27.06039073 3.4375 28.9375 C2.57898438 29.81277344 1.72046875 30.68804687 0.8359375 31.58984375 C-0.98333274 33.42797631 -2.82342344 35.23335613 -4.68359375 37.03125 C-6.73334966 39.04869864 -8.61663552 41.14686628 -10.4765625 43.33984375 C-15.82294763 49.516884 -21.68604293 55.20960887 -27.46850586 60.97387695 C-29.4951298 62.99514268 -31.51635547 65.02169574 -33.53710938 67.04882812 C-39.12170327 72.63596096 -44.67533713 78.1805068 -50.70385742 83.29272461 C-55.64605481 87.66624146 -60.15508322 92.5387838 -64.75976562 97.26171875 C-65.56478516 98.07769531 -66.36980469 98.89367187 -67.19921875 99.734375 C-67.91811279 100.47010742 -68.63700684 101.20583984 -69.37768555 101.96386719 C-74.18522509 106.30671551 -77.77455432 107.49678277 -84.12890625 107.2890625 C-88.94173716 106.59378998 -91.62373553 103.95449485 -94.8125 100.5 C-97.92776417 95.93836318 -99.14710701 92.67250161 -98.21875 87.0390625 C-96.0975891 80.24629723 -89.99280921 75.18383663 -85.00390625 70.40625 C-83.0268115 68.40701179 -81.20162831 66.38433387 -79.37255859 64.25415039 C-75.78698315 60.14183337 -72.02310291 56.25304826 -68.16015625 52.40234375 C-67.47876083 51.71999161 -66.79736542 51.03763947 -66.09532166 50.33460999 C-64.66544259 48.90405563 -63.23432089 47.47474233 -61.80200195 46.04663086 C-59.63052289 43.88050926 -57.46443675 41.70909826 -55.29882812 39.53710938 C-53.89875798 38.13770013 -52.49837762 36.73860116 -51.09765625 35.33984375 C-50.46094498 34.70110825 -49.8242337 34.06237274 -49.16822815 33.40428162 C-45.36819282 29.62364545 -41.44436158 26.05107454 -37.38923645 22.54631042 C-35.00899057 20.45002314 -32.78889396 18.22634741 -30.58203125 15.94921875 C-29.30102539 14.64307617 -29.30102539 14.64307617 -27.99414062 13.31054688 C-26.2325678 11.50431076 -24.47481342 9.69434353 -22.72070312 7.88085938 C-21.87056641 7.01654297 -21.02042969 6.15222656 -20.14453125 5.26171875 C-19.38374268 4.47885498 -18.6229541 3.69599121 -17.83911133 2.8894043 C-12.391246 -1.78144646 -6.73868118 -2.00978211 0 0 Z " fill="#FFFFFF" transform="translate(199.5625,305.0625)"/>
<path d="M0 0 C1.00930069 -0.01575577 2.01860138 -0.03151154 3.05848694 -0.04774475 C4.72600761 -0.05816803 4.72600761 -0.05816803 6.42721558 -0.06880188 C7.59483932 -0.08355057 8.76246307 -0.09829926 9.96546936 -0.11349487 C13.84444151 -0.15815658 17.72337137 -0.186434 21.60250854 -0.21064758 C22.9389947 -0.22005591 24.27548024 -0.22955036 25.61196518 -0.23913002 C31.17420829 -0.27763716 36.73643618 -0.31084475 42.29878426 -0.32950115 C50.26237642 -0.35627729 58.22433889 -0.41372501 66.18734086 -0.51526612 C71.7900133 -0.58425557 77.39225394 -0.61847979 82.99534118 -0.62706596 C86.34005956 -0.63305771 89.68177602 -0.65836788 93.02627945 -0.71162987 C96.76402513 -0.76761715 100.49776192 -0.76675854 104.23580933 -0.75239563 C105.88511192 -0.79621872 105.88511192 -0.79621872 107.56773376 -0.84092712 C112.11851014 -0.77324638 115.05446961 -0.61311193 118.70621872 2.25188255 C121.87908892 5.69573808 123.95005015 8.23317839 125.10641479 12.81278992 C124.31655998 25.4040049 124.31655998 25.4040049 119.28219604 30.11357117 C115.1054519 32.51836325 110.64820844 32.58173949 105.92306519 32.84208679 C105.18276849 32.88377235 104.44247179 32.92545792 103.67974186 32.96840668 C86.69603806 33.84650643 69.6534366 33.68684791 52.65206909 33.7610321 C47.97234253 33.78345956 43.29339436 33.82550217 38.61398315 33.88407898 C32.92086817 33.95514184 27.22849537 33.99185157 21.53495979 34.00415039 C19.3783869 34.01452761 17.22183558 34.03689586 15.06551933 34.07174683 C12.0553941 34.11797246 9.04821295 34.11995414 6.03781128 34.11161804 C4.71840546 34.14701187 4.71840546 34.14701187 3.37234497 34.18312073 C-2.73216273 34.10150698 -5.78408988 32.33690379 -10.17405605 28.13341522 C-13.72799522 24.07922203 -15.06037125 20.18146737 -14.90530396 14.86357117 C-14.08158669 9.3342507 -10.68134418 6.0579621 -6.78030396 2.30107117 C-4.27592706 -0.20330573 -3.46298698 0.03874254 0 0 Z " fill="#FFFFFF" transform="translate(51.780303955078125,224.6989288330078)"/>
<path d="M0 0 C4.6557152 2.24471983 8.8320893 5.6620426 10.59738159 10.70735168 C11.15545639 13.8852224 11.1274122 16.95568078 11.12939453 20.18237305 C11.13114685 20.90048157 11.13289917 21.61859009 11.13470459 22.35845947 C11.13911556 24.74290367 11.13617881 27.12727373 11.1328125 29.51171875 C11.13348787 31.19814569 11.13445983 32.88457253 11.13571167 34.57099915 C11.13718934 38.1278271 11.13503961 41.68463003 11.13037109 45.24145508 C11.12479852 49.69414292 11.12797061 54.14676938 11.13380814 58.59945488 C11.15313551 75.95347434 11.06635989 93.29715725 10.5546875 110.64453125 C10.53527225 111.33413122 10.51585701 112.02373119 10.49585342 112.73422813 C9.9747805 130.698347 9.9747805 130.698347 7.6953125 133.7421875 C1.80665116 137.99022677 -2.87217763 138.77876056 -10 138 C-13.72596951 136.72805494 -16.337201 134.7953588 -18.875 131.75 C-21.84673733 124.48575319 -21.30436974 115.76015273 -21.55078125 108.02734375 C-21.59262039 106.7313475 -21.63445953 105.43535126 -21.67756653 104.1000824 C-22.16344774 88.00240529 -22.18727868 71.89988641 -22.18530273 55.79614258 C-22.18519916 51.37415351 -22.19910694 46.95231807 -22.21607494 42.53036594 C-22.22718675 39.07563044 -22.22922257 35.62093311 -22.22869301 32.16618156 C-22.22986445 30.53359359 -22.23423866 28.90100435 -22.24202538 27.26843452 C-22.25185568 25.00509528 -22.24894086 22.74210497 -22.24291992 20.47875977 C-22.24434494 19.19912857 -22.24576996 17.91949738 -22.24723816 16.60108948 C-21.94458377 12.19284787 -21.44480935 7.75104612 -18.5625 4.2578125 C-12.2332591 -0.33088716 -7.7903655 -0.73417057 0 0 Z " fill="#FFFFFF" transform="translate(278,7)"/>
</svg>
