<?xml version="1.0" encoding="UTF-8"?>
<svg version="1.1" xmlns="http://www.w3.org/2000/svg" width="683" height="683">
<path d="M0 0 C2.38514762 -0.00300333 4.77029475 -0.00640849 7.15544128 -0.01017761 C13.54553921 -0.01889542 19.93562369 -0.02135028 26.32572699 -0.0219934 C30.33319203 -0.02271009 34.34065377 -0.02479398 38.34811783 -0.02749062 C51.65088885 -0.03625688 64.95365191 -0.04091542 78.25642584 -0.04016014 C78.96828481 -0.04012019 79.68014377 -0.04008023 80.41357422 -0.04003906 C81.12632559 -0.03999818 81.83907696 -0.0399573 82.57342686 -0.03991518 C94.14305869 -0.03950807 105.7126581 -0.04910465 117.28228055 -0.06317743 C129.23421369 -0.07759804 141.18613104 -0.08444476 153.13807309 -0.08358365 C159.81959199 -0.08325403 166.50106939 -0.0860988 173.18258286 -0.0967617 C179.46194791 -0.10651334 185.74124117 -0.10647393 192.0206089 -0.09924507 C194.30851281 -0.09820847 196.59642138 -0.10050628 198.8843174 -0.10660553 C209.65303604 -0.13342976 220.35407719 -0.00416966 231.08474731 0.97294617 C231.90342879 1.04209852 232.72211027 1.11125087 233.56560028 1.18249875 C237.98527714 1.6447677 241.31360019 2.26380906 244.87548828 5.14526367 C247.26453932 11.53525561 247.1780919 17.88569918 247.12548828 24.64526367 C247.13322266 25.63913086 247.14095703 26.63299805 247.14892578 27.65698242 C247.11078321 42.09394734 247.11078321 42.09394734 242.31743336 47.32673168 C238.73209773 50.74676883 235.24357229 50.98657904 230.44499207 50.89802551 C229.60932451 50.90653005 228.77365696 50.91503458 227.91266614 50.92379683 C225.11599721 50.94501969 222.32130275 50.92359077 219.5246582 50.90234375 C217.51415521 50.90888124 215.50365934 50.91806438 213.49317932 50.9296875 C208.013395 50.95394002 202.534228 50.9413151 197.05444503 50.92262483 C191.24557949 50.90943561 185.43684353 50.9311206 179.62800598 50.94914246 C168.54137079 50.97842608 157.45494916 50.97794121 146.36828929 50.96621865 C134.04783404 50.95417492 121.72747717 50.96896353 109.4070375 50.98900819 C105.78488381 50.9948648 102.16272969 51.0002047 98.54057503 51.00541496 C86.64470801 51.02282355 74.74885128 51.04361633 62.85299683 51.06814575 C61.11930456 51.07166721 61.11930456 51.07166721 59.3505882 51.0752598 C53.64181354 51.08694392 47.93304201 51.09935945 42.22427177 51.11303902 C30.91514105 51.1388227 19.60652064 51.14410808 8.29740328 51.11176401 C1.34455917 51.09364309 -5.60787549 51.1025644 -12.56066698 51.13518804 C-16.42289763 51.15237674 -20.28396377 51.15701207 -24.1461277 51.12516212 C-39.74429455 51.00389218 -52.97790088 50.93011989 -66.12451172 60.14526367 C-66.97224655 60.70577927 -67.81998138 61.26629486 -68.69340515 61.84379578 C-70.63501027 63.17218578 -72.37182417 64.5781548 -74.12451172 66.14526367 C-75.02363281 66.9419043 -75.02363281 66.9419043 -75.94091797 67.75463867 C-85.44577195 76.70521391 -91.43429707 87.75241489 -92.35932922 100.79293823 C-92.4722166 102.20557286 -92.4722166 102.20557286 -92.58738452 103.64674556 C-93.48846982 116.28365379 -93.40150933 128.95227333 -93.37130201 141.61385322 C-93.36461321 145.36167188 -93.36969731 149.10947932 -93.3731842 152.8572998 C-93.3781811 160.16694911 -93.37264209 167.47655254 -93.3633339 174.78619613 C-93.35285813 183.32525419 -93.3530225 191.8643028 -93.35350648 200.40336607 C-93.3540052 215.65311625 -93.34489719 230.90284533 -93.33032227 246.15258789 C-93.31623381 260.90128972 -93.30915189 275.64997299 -93.30981445 290.39868164 C-93.30985441 291.30756229 -93.30989437 292.21644294 -93.30993553 293.15286542 C-93.30997589 294.06028049 -93.31001624 294.96769555 -93.31005782 295.90260804 C-93.31075019 312.76718838 -93.30484384 329.63176095 -93.2959046 346.49633876 C-93.29290679 352.42834684 -93.29182727 358.36035347 -93.2913723 364.29236221 C-93.2906854 371.53396828 -93.28615518 378.77556123 -93.27703949 386.01716174 C-93.27246865 389.70173169 -93.26935825 393.38628504 -93.2706337 397.070858 C-93.28064581 415.8589843 -93.28064581 415.8589843 -92.74433899 434.63766479 C-92.71456567 435.42112876 -92.68479235 436.20459273 -92.65411681 437.01179802 C-91.98879169 449.74194362 -84.63366497 462.40018036 -75.31201172 470.95776367 C-73.94064252 472.05165739 -72.54298573 473.11318401 -71.12451172 474.14526367 C-70.30208984 474.75112305 -69.47966797 475.35698242 -68.63232422 475.98120117 C-56.13713887 484.56485024 -42.89225967 486.18431772 -28.14089966 486.45700073 C-26.70979138 486.48769618 -26.70979138 486.48769618 -25.24977183 486.51901174 C-22.10669665 486.58426669 -18.96354768 486.64246534 -15.8203125 486.69946289 C-14.72303337 486.72042518 -13.62575425 486.74138748 -12.49522424 486.76298499 C11.84813558 487.22275699 36.18806131 487.29363018 60.53506327 487.27958918 C66.53174786 487.27697691 72.52843128 487.279427 78.52511597 487.28097534 C88.58396689 487.28277294 98.64281037 487.28045614 108.70166016 487.27563477 C120.15663411 487.27020589 131.61159021 487.27195477 143.06656373 487.27746117 C153.08025546 487.28207315 163.09394197 487.28260403 173.10763443 487.2800225 C179.00968775 487.27850202 184.91173284 487.27814344 190.81378555 487.28155899 C205.00966506 487.28842814 219.20481549 487.25728275 233.40042591 487.16688251 C235.79424502 487.15199024 238.18807216 487.13835333 240.58190441 487.12575054 C248.27156835 487.0845178 255.9605169 487.020653 263.64973617 486.92777991 C266.09772512 486.9009296 268.54579404 486.88047592 270.99389291 486.86695695 C292.56515444 486.73733969 309.29251334 484.05588177 325.62548828 468.58666992 C343.05214761 449.67753437 342.15350664 425.96353446 342.27394867 401.90133095 C342.29562851 397.68529524 342.33617712 393.46956224 342.38018799 389.25370789 C342.5030399 377.27962837 342.6123745 365.30559529 342.67822266 353.33105469 C342.71491137 346.68745914 342.77272582 340.0444001 342.85423207 333.40119904 C342.89628292 329.8973128 342.92727435 326.39409978 342.93184662 322.88994789 C342.93693723 318.99572705 342.98783311 315.10284117 343.04248047 311.20898438 C343.03346207 309.47831223 343.03346207 309.47831223 343.02426147 307.712677 C343.18317378 300.11471389 343.18317378 300.11471389 345.17822838 297.32103252 C351.61516855 291.74557946 359.76175169 292.96217734 367.75048828 292.95776367 C368.90935547 292.94551758 370.06822266 292.93327148 371.26220703 292.9206543 C385.11400111 292.89690836 385.11400111 292.89690836 390.53115845 297.3074646 C393.42034481 300.80480967 393.46704079 302.36791064 393.37695312 306.85083008 C393.37093204 307.51845242 393.36491096 308.18607475 393.35870743 308.87392807 C393.33298305 311.12422618 393.27174302 313.37220943 393.21142578 315.62182617 C393.18660414 317.25253677 393.16441642 318.88328922 393.1446228 320.5140686 C393.09820938 324.10597837 393.03850351 327.69736595 392.97106934 331.28894043 C392.86252506 337.42157851 392.82323603 343.55378963 392.79443359 349.68725586 C392.7455569 359.81937228 392.67540099 369.9510555 392.58787918 380.08291245 C392.53764474 385.92610126 392.49107539 391.76926277 392.45361328 397.61254883 C392.41654638 403.38708814 392.3702257 409.16148545 392.31742477 414.93590164 C392.29911483 417.10052679 392.28392405 419.265181 392.27214432 421.42985153 C392.09754952 452.27227083 392.09754952 452.27227083 387.25048828 463.64526367 C386.99251465 464.25144531 386.73454102 464.85762695 386.46875 465.48217773 C375.99794729 489.48780566 359.52432412 511.79580513 335.87548828 524.14526367 C335.19599121 524.50297852 334.51649414 524.86069336 333.81640625 525.22924805 C294.99429655 545.31055598 242.99001021 537.31978393 200.43798828 537.27026367 C199.68929128 537.26941521 198.94059427 537.26856674 198.16920948 537.26769257 C183.69309688 537.25107672 169.21698659 537.23059679 154.7408967 537.19983268 C134.14929896 537.1561276 113.55811815 537.14558937 92.96649063 537.17616916 C75.5849436 537.20152042 58.20359147 537.19630556 40.82205296 537.16539955 C30.81695138 537.14850804 20.81223648 537.14531341 10.80715942 537.17657471 C2.2353101 537.20333215 -6.33599909 537.20243226 -14.9078266 537.16720521 C-19.30816335 537.14999836 -23.70750933 537.14543312 -28.10779381 537.17626572 C-46.72798785 537.2976041 -63.22235969 537.05899165 -80.12451172 528.14526367 C-80.83076817 527.78320831 -81.53702461 527.42115295 -82.26468277 527.04812622 C-108.95314933 513.26804608 -130.35064909 489.64534156 -140.12451172 461.14526367 C-144.14284832 447.37351587 -144.27041714 432.91079525 -144.29859924 418.67715454 C-144.30477971 417.2633937 -144.31135743 415.84963454 -144.31829304 414.4358772 C-144.33590003 410.58751896 -144.34746865 406.73916386 -144.35784972 402.89078021 C-144.36755805 399.58082908 -144.38085017 396.27089596 -144.39411867 392.96095748 C-144.44144693 381.1187747 -144.47433323 369.27656615 -144.50341797 357.43432617 C-144.50572555 356.49812956 -144.50803313 355.56193295 -144.51041064 354.59736675 C-144.55588286 335.96930886 -144.59431493 317.34123863 -144.62114048 298.7131443 C-144.62712836 294.62720347 -144.63321421 290.5412628 -144.6394043 286.45532227 C-144.64093728 285.43993544 -144.64247026 284.42454862 -144.6440497 283.3783925 C-144.66974276 266.94378405 -144.72661962 250.50943248 -144.7958696 234.07495601 C-144.86655245 217.15928202 -144.90660564 200.2437405 -144.91789001 183.32792127 C-144.92501894 173.84745034 -144.94549025 164.36742672 -145.00091743 154.88710403 C-145.04810451 146.81118049 -145.06753204 138.73577195 -145.05203594 130.65971561 C-145.04498886 126.54910923 -145.05026776 122.43960268 -145.09161377 118.32917404 C-145.38302401 87.73006986 -138.51382019 60.19408745 -117.12451172 37.14526367 C-115.97208984 35.89036133 -115.97208984 35.89036133 -114.79638672 34.61010742 C-94.5642357 13.49687886 -68.36526687 1.36708325 -39.0697937 0.52934265 C-37.93648522 0.49175392 -36.80317674 0.45416519 -35.63552558 0.4154374 C-23.75752293 0.05043967 -11.88262294 -0.00305599 0 0 Z " fill="#FFFFFF" transform="translate(144.12451171875,96.854736328125)"/>
<path d="M0 0 C1.96906187 -0.00955593 3.93812214 -0.0194478 5.90718079 -0.02964783 C12.32905132 -0.06079571 18.75093397 -0.08125474 25.17285156 -0.09985352 C26.26816979 -0.10315084 27.36348803 -0.10644816 28.49199772 -0.1098454 C38.82998426 -0.14058519 49.16797401 -0.16727052 59.50599289 -0.18426418 C72.69814157 -0.20621273 85.88988572 -0.24833228 99.0818727 -0.31770176 C108.37897574 -0.36492635 117.67596942 -0.38919454 126.97318864 -0.39646107 C132.51900178 -0.40141388 138.0643566 -0.41646403 143.61003876 -0.45620537 C148.82071252 -0.49306405 154.03066579 -0.50148379 159.24144554 -0.48819923 C161.15061769 -0.48825317 163.05982184 -0.49854449 164.96887398 -0.51995087 C182.4100272 -0.70504457 182.4100272 -0.70504457 187.95662308 4.61556911 C188.40438473 5.14131558 188.85214638 5.66706205 189.31347656 6.20874023 C190.051541 6.99073965 190.051541 6.99073965 190.80451584 7.78853703 C200.14095595 18.21274703 197.45966414 34.29628686 197.44287109 47.46069336 C197.44422901 49.26415543 197.44601112 51.06761722 197.44818115 52.87107849 C197.45270909 57.73260374 197.45098514 62.59410758 197.44780207 67.45563316 C197.44525436 72.56510853 197.44762269 77.67458217 197.44918823 82.78405762 C197.45100292 91.36133144 197.44862204 99.93859663 197.44384766 108.51586914 C197.43840639 118.40484894 197.44016955 128.29380812 197.44567406 138.18278742 C197.45022519 146.70292921 197.45084597 155.22306483 197.44823539 163.74320745 C197.44668361 168.81892579 197.44644856 173.89463447 197.44977188 178.97035217 C197.45267973 183.74420694 197.4506218 188.51803534 197.44487762 193.29188728 C197.44356557 195.03444945 197.44391741 196.77701387 197.44614029 198.51957512 C197.48122863 228.84265227 197.48122863 228.84265227 190.48144531 236.11108398 C184.65118625 241.56232047 179.55307509 243.49184869 171.50097656 243.70874023 C170.36015625 243.76030273 169.21933594 243.81186523 168.04394531 243.86499023 C159.6858127 242.39465905 153.4449451 235.76778468 147.71582031 229.86889648 C147.03725479 229.18371445 146.35868927 228.49853241 145.65956116 227.79258728 C143.51602955 225.62589869 141.38300495 223.44924359 139.25097656 221.27124023 C137.11365777 219.09859386 134.97410299 216.92821856 132.8316803 214.76060486 C131.50706622 213.41931609 130.1855664 212.07494117 128.86790466 210.7268219 C125.13240234 206.93165891 121.26598727 203.37790407 117.23439026 199.90010071 C114.31671032 197.33108965 111.57922775 194.59890685 108.84472656 191.83764648 C108.27894897 191.27045395 107.71317139 190.70326141 107.13024902 190.11888123 C105.3555908 188.338706 103.58447557 186.55505505 101.81347656 184.77124023 C100.59756543 183.55030333 99.38142141 182.32959831 98.16503906 181.10913086 C95.21182691 178.1450001 92.26178258 175.17775065 89.31347656 172.20874023 C85.5594197 173.77206696 83.18478102 176.09335677 80.33062744 178.95780945 C79.84282799 179.44460562 79.35502853 179.93140179 78.85244727 180.43294936 C77.22040933 182.06403535 75.59562455 183.70215862 73.97070312 185.34033203 C72.80127962 186.51195707 71.63140748 187.68313444 70.46112061 188.85389709 C67.94167184 191.37627964 65.4254133 193.90178759 62.91156769 196.42975426 C58.9319215 200.43168039 54.94518703 204.42649419 50.9574585 208.42036438 C44.64511438 214.74409437 38.33745713 221.07247567 32.03182387 227.4028967 C20.75579949 238.72318315 9.47429828 250.03800455 -1.8125422 261.34750682 C-5.77028798 265.31363033 -9.72520647 269.28254519 -13.67783308 273.25377023 C-16.14589175 275.73252859 -18.61602636 278.20921072 -21.08666229 280.68540001 C-22.2259012 281.82808784 -23.36426866 282.97164532 -24.50166321 284.11616898 C-29.75424837 289.40092823 -35.02213385 294.5874556 -40.68686295 299.43548298 C-44.97988764 303.24244782 -48.97027213 307.37203089 -53.01464844 311.43920898 C-54.02724142 312.45372541 -55.04006547 313.46801124 -56.05310059 314.48208618 C-58.21958502 316.65171118 -60.3845111 318.82287463 -62.54821777 320.99526978 C-65.97597152 324.43664491 -69.40762483 327.8741141 -72.83984375 331.31103516 C-80.12504919 338.60730005 -87.40601024 345.90779367 -94.68652344 353.20874023 C-102.54880154 361.09308448 -110.41182297 368.97667887 -118.27975082 376.85538578 C-121.68516742 380.26575729 -125.08813735 383.67854517 -128.48919678 387.09326172 C-130.61195831 389.22352976 -132.73683207 391.35168153 -134.86225891 393.47929001 C-135.84023478 394.45912356 -136.81735324 395.43981383 -137.79350281 396.42146683 C-142.74775043 401.40274313 -147.73948786 406.26468845 -153.08409119 410.82772827 C-154.98802084 412.46857744 -156.75646265 414.21084253 -158.49902344 416.02124023 C-161.69844411 419.3422541 -164.19101711 421.50933135 -168.9375 421.70458984 C-174.48227567 421.5600853 -176.9746786 419.15532036 -180.67089844 415.27514648 C-181.30179382 414.64999649 -181.93268921 414.0248465 -182.58270264 413.38075256 C-183.93502401 412.03681368 -185.27775028 410.68316271 -186.61157227 409.32086182 C-188.69446548 407.20065592 -190.80807386 405.11669516 -192.93457031 403.0402832 C-196.56344534 399.49214895 -200.16392755 395.91704379 -203.75244141 392.328125 C-205.9711732 390.11162534 -208.19786438 387.90331732 -210.42480469 385.69506836 C-211.85107255 384.27172768 -213.27687205 382.84791748 -214.70214844 381.42358398 C-215.36144348 380.77147446 -216.02073853 380.11936493 -216.70001221 379.44749451 C-224.40671895 371.70204753 -224.40671895 371.70204753 -225.08105469 365.69311523 C-223.92487782 355.48212746 -210.59334007 345.96619218 -203.60327148 339.11010742 C-202.813479 338.33441406 -202.02368652 337.5587207 -201.20996094 336.75952148 C-200.50790527 336.07543213 -199.80584961 335.39134277 -199.08251953 334.68652344 C-197.17137303 332.71014012 -195.38543906 330.70993021 -193.5995245 328.62414551 C-189.48672478 323.91242026 -185.11137986 319.49753577 -180.68251038 315.08447266 C-179.79856564 314.1996735 -178.91462091 313.31487434 -178.00388998 312.40326309 C-175.57060226 309.967756 -173.13423582 307.53534993 -170.6973213 305.10347247 C-168.06233353 302.47282603 -165.43025992 299.83926657 -162.79782104 297.20606995 C-158.24327683 292.65100283 -153.68691355 288.09776196 -149.12928963 283.54577637 C-142.53983177 276.96446514 -135.95315554 270.38037574 -129.36714261 263.79561734 C-118.68023078 253.11089107 -107.99109034 242.42839724 -97.30053711 231.74731445 C-86.91915336 221.37511767 -76.53882634 211.0018652 -66.15991211 200.62719727 C-65.51954712 199.987095 -64.87918214 199.34699274 -64.21941216 198.68749344 C-61.00671405 195.47610043 -57.79403664 192.26468672 -54.58136952 189.05326271 C-27.9529615 162.43521184 -1.32093183 135.82078697 25.31347656 109.20874023 C24.3575157 108.08713478 23.40065655 106.96629491 22.44341946 105.84577847 C21.91066511 105.22152869 21.37791076 104.59727891 20.82901233 103.95411247 C19.07633478 101.93563505 17.24499355 100.02664269 15.34692383 98.14453125 C14.62920303 97.43011368 13.91148224 96.71569611 13.17201233 95.97962952 C12.41560959 95.23152512 11.65920685 94.48342072 10.87988281 93.71264648 C10.08372055 92.92027084 9.28755829 92.1278952 8.4672699 91.31150818 C5.08866448 87.94912387 1.70412121 84.59274011 -1.67993164 81.23583984 C-4.16208812 78.77187293 -6.6411581 76.30482957 -9.12011719 73.83764648 C-9.8744957 73.09156631 -10.62887421 72.34548615 -11.40611267 71.57679749 C-15.50920478 67.49250678 -19.41683679 63.30992476 -23.19468689 58.92320251 C-24.86501183 57.00361615 -26.61191636 55.19665871 -28.44042969 53.42749023 C-29.38112305 52.50516602 -29.38112305 52.50516602 -30.34082031 51.56420898 C-31.61496507 50.325276 -32.8910157 49.0883001 -34.16894531 47.85327148 C-40.82464893 41.31409409 -47.48685489 34.69631083 -47.74902344 24.86499023 C-47.3981701 17.76021011 -45.10684557 11.8044635 -40.16308594 6.60717773 C-29.50574801 -2.64360798 -13.27618599 0.04148828 0 0 Z " fill="#FFFFFF" transform="translate(485.6865234375,48.791259765625)"/>
</svg>
